<?xml version="1.0" encoding="UTF-8" standalone="no"?>
<svg
   xmlns:dc="http://purl.org/dc/elements/1.1/"
   xmlns:cc="http://creativecommons.org/ns#"
   xmlns:rdf="http://www.w3.org/1999/02/22-rdf-syntax-ns#"
   xmlns:svg="http://www.w3.org/2000/svg"
   xmlns="http://www.w3.org/2000/svg"
   width="512"
   height="512"
   viewBox="0 0 135.46666 135.46668"
   version="1.1"
   id="svg8">
  <defs
     id="defs2" />
  <metadata
     id="metadata5">
    <rdf:RDF>
      <cc:Work
         rdf:about="">
        <dc:format>image/svg+xml</dc:format>
        <dc:type
           rdf:resource="http://purl.org/dc/dcmitype/StillImage" />
        <dc:title></dc:title>
      </cc:Work>
    </rdf:RDF>
  </metadata>
  <g
     id="layer1">
    <path
       style="fill:#ffffff;fill-opacity:1;stroke:none;stroke-width:0.283408px;stroke-linecap:butt;stroke-linejoin:miter;stroke-opacity:1"
       d="m 105.16626,84.59922 -0.0625,4.314663 L 56.917213,117.49832 42.577438,112.37817 49.725319,96.837479 105.16626,84.59922"
       id="path867" />
    <path
       style="fill:#fffff9;fill-opacity:1;stroke:none;stroke-width:1.41704;stroke-linecap:butt;stroke-linejoin:miter;stroke-miterlimit:4;stroke-dasharray:none;stroke-opacity:1"
       d="m 48.102538,71.741779 c 0.116965,-0.718654 2.315919,-8.136789 15.197729,-13.582608 12.881811,-5.445819 18.917236,-3.409627 21.833577,-3.026343 2.916345,0.383284 8.1642,4.902835 8.1642,4.902835 0,0 -6.25376,8.336416 -21.59185,13.103507 -15.338089,4.767087 -23.603656,-1.397391 -23.603656,-1.397391 z"
       id="path849" />
    <path
       style="fill:#000000;fill-opacity:1;stroke:none;stroke-width:0.850225;stroke-linecap:butt;stroke-linejoin:miter;stroke-miterlimit:4;stroke-dasharray:none;stroke-opacity:1"
       d="m 80.629398,70.533145 c 0,0 1.147137,-1.872991 -0.662787,-5.873494 -1.809925,-4.000502 -3.587986,-7.133033 -10.133029,-5.534137 -6.545044,1.598895 -6.768098,4.953315 -7.144103,8.151106 -0.376003,3.197792 2.823227,7.602913 5.276823,7.863958"
       id="path851" />
    <path
       style="fill:#beffc5;fill-opacity:1;stroke:none;stroke-width:1.03331;stroke-miterlimit:4;stroke-dasharray:none;stroke-opacity:1"
       d="m 52.436308,127.8322 c -17.729054,-1.20928 -26.937204,-8.5506 -30.113706,-24.00858 -1.93427,-9.412821 -1.555534,-25.419579 1.166477,-49.299638 1.771658,-15.54266 5.260508,-24.651751 11.083663,-28.938516 3.814462,-2.808045 6.735792,-3.452241 17.174723,-3.787261 10.25901,-0.329247 13.109118,-1.078053 18.86977,-4.95763 4.053512,-2.729884 7.545356,-4.342999 11.74292,-5.424829 2.934628,-0.756338 3.843952,-0.837328 7.962669,-0.709213 3.715618,0.115575 5.168651,0.313372 7.232881,0.984588 2.36014,0.767436 2.639495,0.957752 3.235595,2.204305 1.1085,2.318097 3.19733,8.055695 4.50348,12.370186 2.2383,7.393627 3.20528,13.079739 4.98131,29.291639 0.45345,4.139101 1.09202,7.789719 1.92131,10.983886 1.21931,4.696437 1.84693,9.641749 1.43296,11.291114 -0.1381,0.550294 -1.21811,1.519689 -3.17087,2.846144 -1.62877,1.106386 -4.22976,3.18005 -5.77996,4.608136 -7.442735,6.856461 -31.903407,20.495899 -44.067203,24.572189 -6.993915,2.34377 -10.530912,2.74516 -12.08589,1.37154 -0.601973,-0.53177 -0.631034,-0.51623 -0.516634,0.27629 0.35016,2.42573 8.484118,1.3023 18.031211,-2.49039 9.962363,-3.95766 29.794851,-14.878729 37.118756,-20.440039 1.75029,-1.32906 1.96783,-1.416441 1.82178,-0.731777 -0.0913,0.427629 -0.34593,1.707444 -0.56603,2.84404 -0.88106,4.549913 -2.95916,9.560686 -5.499405,13.260276 -3.37477,4.91499 -12.684816,12.40711 -23.771634,19.12986 -6.728772,4.08015 -7.289013,4.27754 -13.167943,4.63948 -5.11547,0.31493 -6.376084,0.33002 -9.54023,0.1142 z M 109.28188,79.053159 c 1.085,-0.855008 1.70631,-2.158712 1.70631,-3.580409 0,-1.394524 -0.0525,-1.467505 -1.21122,-1.684887 -1.42586,-0.267495 -3.07244,0.31946 -3.79662,1.353382 -0.65676,0.937644 -0.64112,2.625131 0.0332,3.587911 0.60137,0.858567 2.36773,1.033671 3.2683,0.324003 z M 67.6941,73.962847 c 8.527045,-1.737703 18.226842,-6.693654 23.437732,-11.975128 l 2.014486,-2.041775 -2.186695,-1.54965 c -4.501418,-3.190027 -7.154377,-3.898895 -13.504136,-3.608292 -10.813605,0.494896 -24.010784,7.25363 -28.066724,14.373952 -0.593485,1.04188 -1.080519,2.066899 -1.082297,2.27782 -0.0046,0.542157 3.747119,2.159528 6.291956,2.712492 3.314116,0.720124 9.038795,0.63732 13.095678,-0.189419 z"
       id="path865" />
    <path
       style="fill:#010000;fill-opacity:1;stroke:#000000;stroke-width:0.283975;stroke-linecap:round;stroke-linejoin:miter;stroke-miterlimit:4;stroke-dasharray:none;stroke-opacity:1"
       d="m 47.683728,110.9389 c 0,0 -0.711459,3.2785 12.176907,-0.84064 12.888366,-4.11914 40.197465,-20.147351 43.645305,-23.958254 3.44785,-3.810902 9.7142,-7.425655 9.7142,-7.425655 0,0 1.505,-4.427372 -1.53238,-13.926609 -3.0374,-9.499234 -0.56263,-28.473921 -11.59029,-52.600297 11.02763,24.126376 9.87834,43.040784 12.91573,52.540018 3.03738,9.499237 1.53238,13.926609 1.53238,13.926609 0,0 -6.26632,3.614753 -9.71417,7.425655 -3.44785,3.810903 -30.756944,19.839113 -43.64531,23.958253 -12.888367,4.11913 -13.502372,0.90092 -13.502372,0.90092"
       id="path847-0" />
    <path
       style="fill:#beffc5;fill-opacity:1;stroke:none;stroke-width:0.314694px;stroke-linecap:butt;stroke-linejoin:miter;stroke-opacity:1"
       d="m 110.97634,73.574633 c 0.90207,2.770312 -0.96388,5.174246 -2.45292,5.906997 -1.48905,0.732751 -3.04608,-0.578489 -3.18817,-2.429644 -0.14211,-1.851158 1.26044,-2.956713 2.0822,-3.380938 0.82176,-0.424223 3.55889,-0.09642 3.55889,-0.09642 z"
       id="path2349" />
    <path
       style="fill:#010000;fill-opacity:1;stroke:none;stroke-width:0.283408px;stroke-linecap:butt;stroke-linejoin:miter;stroke-opacity:1"
       d="m 69.821518,126.80674 c 15.599305,-7.42607 27.265277,-19.08985 27.265277,-19.08985 0,0 5.651695,-7.13548 7.275465,-12.091565 1.62378,-4.956096 0.80401,-11.026102 0.80401,-11.026102 0,0 -0.59119,12.091584 -7.440995,20.494327 -6.849821,8.40277 -25.436557,19.63874 -28.920586,21.10781 -3.484027,1.46907 1.016829,0.60538 1.016829,0.60538 z"
       id="path857" />
    <path
       style="fill:#000000;stroke:none;stroke-width:0.264583px;stroke-linecap:butt;stroke-linejoin:miter;stroke-opacity:1;fill-opacity:1"
       d="m 31.050174,79.668586 c 1.053063,6.7515 -3.143919,10.62736 -4.425908,15.769124 -1.281986,5.14177 -0.808871,5.84505 -0.808871,5.84505 0,0 6.989882,3.45389 10.103279,0.59388 3.113397,-2.860012 0.01966,0.41704 -2.767946,0.73421 -2.787605,0.31718 -6.273001,-1.16298 -6.529332,-2.29314 -0.256333,-1.130174 0.384495,-6.215931 2.200177,-9.281968 1.815682,-3.066037 2.830314,-7.775498 2.670109,-9.383252 -0.160208,-1.607757 -0.441508,-1.983904 -0.441508,-1.983904 z"
       id="path869" />
  </g>
</svg>
