<?xml version="1.0" encoding="UTF-8" standalone="no"?>
<svg
   xmlns:dc="http://purl.org/dc/elements/1.1/"
   xmlns:cc="http://creativecommons.org/ns#"
   xmlns:rdf="http://www.w3.org/1999/02/22-rdf-syntax-ns#"
   xmlns:svg="http://www.w3.org/2000/svg"
   xmlns="http://www.w3.org/2000/svg"
   width="256"
   height="256"
   viewBox="0 0 67.733333 67.733333"
   version="1.1"
   id="svg8">
  <defs
     id="defs2">
    <marker
       style="overflow:visible"
       id="Arrow1Lstart"
       refX="0.0"
       refY="0.0"
       orient="auto">
      <path
         transform="scale(0.8) translate(12.5,0)"
         style="fill-rule:evenodd;stroke:#000000;stroke-width:1pt;stroke-opacity:1;fill:#ffbbff;fill-opacity:1"
         d="M 0.0,0.0 L 5.0,-5.0 L -12.5,0.0 L 5.0,5.0 L 0.0,0.0 z "
         id="path851" />
    </marker>
  </defs>
  <metadata
     id="metadata5">
    <rdf:RDF>
      <cc:Work
         rdf:about="">
        <dc:format>image/svg+xml</dc:format>
        <dc:type
           rdf:resource="http://purl.org/dc/dcmitype/StillImage" />
        <dc:title></dc:title>
      </cc:Work>
    </rdf:RDF>
  </metadata>
  <g
     id="layer1">
    <path
       style="fill:#fff2e7;fill-opacity:1;stroke:#000000;stroke-width:0.529167;stroke-linecap:butt;stroke-linejoin:miter;stroke-miterlimit:4;stroke-dasharray:none;stroke-opacity:1"
       d="m 14.232063,39.015747 c 0,0 -2.007294,-5.612873 2.755399,-11.771865 4.762692,-6.158991 9.177257,-6.545825 16.487954,-7.524285 7.310694,-0.978461 10.858643,0.470268 12.495585,2.328584 1.636945,1.858317 5.21452,6.591336 5.577462,10.81616 0.362942,4.224827 0.17036,6.62926 0.17036,6.62926 0,0 3.066494,-0.364078 6.081138,2.002432 3.014641,2.366508 2.488747,6.083142 0.533302,8.290367 -1.955445,2.207223 -6.762578,5.643213 -10.510515,6.067973 -3.747936,0.424757 -5.547833,-0.212381 -5.547833,-0.212381 0,0 -3.325736,2.358924 -7.851407,3.064327 -4.525669,0.7054 -8.473591,-1.562505 -8.473591,-1.562505 0,0 -4.962682,0.895028 -8.858757,0.303401 C 13.195084,56.855588 11.306303,55.232404 10.23229,53.025181 9.1582774,50.817955 7.3435653,46.820678 9.3508584,42.88408 11.358152,38.947485 14.232063,39.015747 14.232063,39.015747 Z"
       id="path1374" />
    <circle
       style="fill:#ffffff;fill-opacity:1;stroke:#000000;stroke-width:0.529167;stroke-miterlimit:4;stroke-dasharray:none;stroke-dashoffset:0;stroke-opacity:1"
       id="path1137"
       cx="24.798828"
       cy="32.55246"
       r="4.7624998" />
    <circle
       style="fill:#ffffff;fill-opacity:1;stroke:#000000;stroke-width:0.529167;stroke-miterlimit:4;stroke-dasharray:none;stroke-dashoffset:0;stroke-opacity:1"
       id="path1137-1"
       cx="39.859062"
       cy="31.33128"
       r="4.7624998" />
    <ellipse
       style="fill:#000000;fill-opacity:1;stroke:none;stroke-width:0.529167;stroke-miterlimit:4;stroke-dasharray:none;stroke-dashoffset:0;stroke-opacity:1"
       id="path1198"
       cx="32.574471"
       cy="26.040426"
       transform="rotate(15.000001)"
       rx="1.0583334"
       ry="1.0583333" />
    <circle
       style="fill:#000000;fill-opacity:1;stroke:none;stroke-width:0.529167;stroke-miterlimit:4;stroke-dasharray:none;stroke-dashoffset:0;stroke-opacity:1"
       id="path1198-0"
       cx="39.199837"
       cy="31.938076"
       r="1.0583333" />
    <path
       style="fill:none;stroke:#000000;stroke-width:0.529167;stroke-linecap:butt;stroke-linejoin:miter;stroke-miterlimit:4;stroke-dasharray:none;stroke-opacity:1"
       d="m 29.691014,44.529642 2.493386,4.300531 1.724454,-4.66238"
       id="path1224" />
    <circle
       style="fill:#000000;fill-opacity:1;stroke:#000000;stroke-width:0.264583;stroke-miterlimit:4;stroke-dasharray:none;stroke-dashoffset:0;stroke-opacity:1"
       id="path1248-8"
       cx="48.562614"
       cy="9.9546432"
       r="0" />
    <path
       style="fill:none;stroke:#000000;stroke-width:0.529167;stroke-linecap:butt;stroke-linejoin:miter;stroke-miterlimit:4;stroke-dasharray:none;stroke-opacity:1"
       d="m 17.260276,30.082199 c 1.941586,-5.667965 5.067166,-5.951999 6.582348,-4.866734"
       id="path1314" />
    <path
       style="fill:none;stroke:#000000;stroke-width:0.529167;stroke-linecap:butt;stroke-linejoin:miter;stroke-miterlimit:4;stroke-dasharray:none;stroke-opacity:1"
       d="M 46.442127,28.246558 C 44.500541,22.578593 41.374961,22.294559 39.859779,23.379824"
       id="path1314-6" />
    <circle
       style="fill:#ffd5d3;fill-opacity:1;stroke:none;stroke-width:0.315789;stroke-miterlimit:4;stroke-dasharray:none;stroke-dashoffset:0;stroke-opacity:1"
       id="path1338"
       cx="18.956827"
       cy="44.57531"
       r="3.175" />
    <circle
       style="fill:#ffd5d3;fill-opacity:1;stroke:none;stroke-width:0.315789;stroke-miterlimit:4;stroke-dasharray:none;stroke-dashoffset:0;stroke-opacity:1"
       id="path1338-8"
       cx="45.323784"
       cy="43.400951"
       r="3.175" />
    <path
       style="fill:#734e3a;fill-opacity:1;stroke:#000000;stroke-width:0.396875;stroke-linecap:butt;stroke-linejoin:miter;stroke-miterlimit:4;stroke-dasharray:none;stroke-opacity:1"
       d="m 29.800761,18.952088 c 2.441371,-0.876679 3.72065,-0.686676 4.723241,-0.23667 1.002588,0.450006 2.122366,1.133349 1.927055,1.920026 -0.19531,0.786677 -5.322191,3.190043 -5.322191,3.190043 0,0 0.735669,-1.176682 0.498041,-1.136682 -0.237628,0.04 -2.28187,1.016681 -2.28187,1.016681 0,0 1.311831,-1.270018 1.487609,-1.690023 0.175779,-0.420006 -1.376931,-0.693343 -2.171192,-0.330005 -0.79426,0.363338 -2.132131,0.890012 -2.132131,0.890012 0,0 1.347637,-2.803371 3.271438,-3.623382 z"
       id="path1389" />
  </g>
</svg>
