<?xml version="1.0" encoding="UTF-8" standalone="no"?>
<svg
   width="256mm"
   height="256mm"
   version="1.1"
   viewBox="0 0 256 256"
   id="svg8"
   xmlns="http://www.w3.org/2000/svg"
   xmlns:svg="http://www.w3.org/2000/svg"
   xmlns:rdf="http://www.w3.org/1999/02/22-rdf-syntax-ns#"
   xmlns:cc="http://creativecommons.org/ns#"
   xmlns:dc="http://purl.org/dc/elements/1.1/">
  <defs
     id="defs8" />
  <metadata
     id="metadata1">
    <rdf:RDF>
      <cc:Work
         rdf:about="">
        <dc:format>image/svg+xml</dc:format>
        <dc:type
           rdf:resource="http://purl.org/dc/dcmitype/StillImage" />
        <dc:title />
      </cc:Work>
    </rdf:RDF>
  </metadata>
  <g
     transform="translate(-0.23823,2.2566)"
     stroke-width="7.8181"
     aria-label="Ω"
     id="g8">
    <path
       d="M 241.24,132.29 A 105.44,100.09 0 0 1 135.8,232.38 105.44,100.09 0 0 1 30.36,132.29 105.44,100.09 0 0 1 135.8,32.2 105.44,100.09 0 0 1 241.24,132.29 Z"
       fill="#ffedec"
       id="path1"
       style="fill:#f2c7f8;fill-opacity:1" />
    <g
       transform="matrix(0.10685,-1.1783,0.84177,0.076333,5.2029,5.893)"
       aria-label="("
       id="g2">
      <path
         d="m -147.39,182.61 q 0,-6.6919 1.9251,-12.467 1.9251,-5.8669 5.5002,-10.45 3.5751,-4.6752 8.617,-7.9753 5.1335,-3.3001 11.459,-4.8585 v 7.7919 q -4.4002,1.0084 -7.9753,3.4835 -3.5751,2.4751 -6.0502,6.1419 -2.4751,3.6668 -3.8501,8.342 -1.375,4.5835 -1.375,9.992 v 17.417 q 0,5.3168 1.2834,9.9004 1.375,4.5835 3.8501,8.1586 2.5668,3.5751 6.1419,6.0502 3.5751,2.4751 7.9753,3.4835 v 8.1586 q -6.5086,-1.6501 -11.642,-4.8585 -5.0418,-3.2084 -8.617,-7.792 -3.4834,-4.5835 -5.4085,-10.359 -1.8334,-5.8669 -1.8334,-12.742 z"
         stroke-width="17.917"
         id="path2"
         style="fill:#c394d7;fill-opacity:1" />
    </g>
    <path
       d="m 135.11,27.172 c -60.949,-2e-6 -110.66,47.01 -110.66,105.17 0,58.158 49.713,105.17 110.66,105.17 60.947,0 110.66,-47.012 110.66,-105.17 0,-58.158 -49.713,-105.17 -110.66,-105.17 z m 0,8.4668 c 56.609,0 102.2,43.368 102.2,96.701 0,53.333 -45.586,96.703 -102.2,96.703 -56.609,0 -102.2,-43.37 -102.2,-96.703 4e-6,-53.333 45.586,-96.701 102.2,-96.701 z"
       color="#000000"
       color-rendering="auto"
       dominant-baseline="auto"
       image-rendering="auto"
       shape-rendering="auto"
       solid-color="#000000"
       stop-color="#000000"
       id="path3"
       style="fill:#ac7dc9;fill-opacity:1" />
    <g
       transform="matrix(0.74904,0.20624,0.11861,-1.3024,5.2029,5.893)"
       aria-label="7"
       id="g4">
      <path
         d="m 208.05,-70.102 v -12.692 h 27.147 v 7.3987 l -14.513,33.579 h -7.7971 l 13.602,-30.619 q 0.3984,-0.85369 0.73987,-1.5366 0.34148,-0.68296 0.62604,-1.1383 0.34148,-0.51222 0.68296,-0.96752 v -0.22765 q -0.85369,0.05691 -1.6505,0.05691 -0.68296,0 -1.4797,0.05691 -0.73987,0 -1.309,0 h -9.3906 v 6.0897 z"
         stroke-width="11.124"
         id="path4"
         style="fill:#c394d7;fill-opacity:1" />
    </g>
    <path
       d="M 34.524,98.876 C 28.8186,96.8769 24.205,93.1775 21.507,88.437 20.3702,86.44 20.1544,85.2219 20.1531,80.7951 c -0.0015,-4.8479 0.15407,-5.5626 1.9582,-8.9959 2.3999,-4.5673 8.0407,-10.024 12.541,-12.132 5.4989,-2.5755 14.283,-4.0792 16.208,-2.7746 0.9719,0.6585 7.1955,13.391 8.3093,17 1.6035,5.1951 1.4381,9.3605 -0.52001,13.098 -2.1262,4.0581 -7.096,8.7648 -11.279,10.682 -3.9595,1.8149 -9.5943,2.3426 -12.847,1.203 z"
       fill="#ff98ff"
       id="path5"
       style="fill:#9be9d8;fill-opacity:1" />
    <path
       d="M 54.973,62.381 C 50.7365,54.6783 49.5585,51.23 49.5185,46.413 c -0.0262,-3.1581 0.28184,-4.891 1.1252,-6.3298 1.9475,-3.3224 5.4126,-6.3027 9.1175,-7.8418 3.0644,-1.273 4.0849,-1.4297 7.8257,-1.2017 7.2966,0.44474 13.874,4.3461 17.385,10.312 3.8416,6.5277 2.1719,12.972 -4.8444,18.696 -5.3102,4.3323 -10.543,6.3466 -17.266,6.6462 l -5.3842,0.23995 z"
       fill="#ff98ff"
       id="path6"
       style="fill:#8640b4;fill-opacity:1" />
    <g
       transform="matrix(0.68629,0.60934,-0.72664,0.81194,5.2029,5.893)"
       aria-label="8"
       id="g7"
       style="stroke-width:7.81801;stroke-dasharray:none">
      <path
         d="m 108.28,26.244 q 0,9.6097 -7.5184,15.983 -7.4686,6.3733 -18.821,6.3733 -12.049,0 -19.219,-6.2239 -7.1201,-6.2239 -7.1201,-15.933 0,-6.1741 3.585,-11.153 3.585,-5.0289 10.108,-7.9666 V 7.02505 q -5.9749,-3.1866 -8.8628,-6.9707 -2.8381,-3.7841 -2.8381,-9.4603 0,-8.3649 6.8712,-13.941 6.8712,-5.5761 17.477,-5.5766 11.103,0 17.726,5.3276 6.6222,5.3276 6.6222,13.543 0,5.0289 -3.1368,9.9084 -3.1368,4.8297 -9.2113,7.5682 V 7.7224 q 6.9707,2.9875 10.655,7.3691 3.6845,4.3816 3.6845,11.153 z M 96.48,-9.954 q 0,-5.3276 -4.1327,-8.4645 -4.0829,-3.1866 -10.456,-3.1866 -6.2737,0 -10.307,2.9875 -3.9833,2.9875 -3.9833,8.0661 0,3.585 1.9916,6.2239 2.0414,2.5891 6.1243,4.6306 1.8423,0.89624 5.2778,2.3402 3.4854,1.4439 6.7716,2.39 4.9293,-3.2862 6.8214,-6.8214 1.8921,-3.5352 1.8921,-8.1657 z m 1.5435,37.144 q 0,-4.5808 -2.0414,-7.3193 -1.9916,-2.7883 -7.867,-5.5766 -2.3402,-1.0954 -5.1285,-2.0414 -2.7883,-0.946 -7.4189,-2.6389 -4.4812,2.4398 -7.2197,6.6222 -2.6887,4.1824 -2.6887,9.4603 0,6.7218 4.6306,11.103 4.6306,4.3816 11.751,4.3816 7.2695,0 11.601,-3.7343 4.3816,-3.7343 4.3816,-10.257 z"
         stroke-width="19.931"
         id="path7"
         style="fill:#562875;fill-opacity:1;stroke-width:7.81801;stroke-dasharray:none" />
    </g>
  </g>
</svg>
