<?xml version="1.0" encoding="UTF-8" standalone="no"?>
<svg
   width="256mm"
   height="256mm"
   version="1.1"
   viewBox="0 0 256 256"
   id="svg8"
   sodipodi:docname="78(_dicolor.svg"
   inkscape:version="1.3 (1:1.3+202307231459+0e150ed6c4)"
   xmlns:inkscape="http://www.inkscape.org/namespaces/inkscape"
   xmlns:sodipodi="http://sodipodi.sourceforge.net/DTD/sodipodi-0.dtd"
   xmlns="http://www.w3.org/2000/svg"
   xmlns:svg="http://www.w3.org/2000/svg"
   xmlns:rdf="http://www.w3.org/1999/02/22-rdf-syntax-ns#"
   xmlns:cc="http://creativecommons.org/ns#"
   xmlns:dc="http://purl.org/dc/elements/1.1/">
  <defs
     id="defs8" />
  <sodipodi:namedview
     id="namedview8"
     pagecolor="#ffffff"
     bordercolor="#666666"
     borderopacity="1.0"
     inkscape:showpageshadow="2"
     inkscape:pageopacity="0.0"
     inkscape:pagecheckerboard="0"
     inkscape:deskcolor="#d1d1d1"
     inkscape:document-units="mm"
     inkscape:zoom="0.75137533"
     inkscape:cx="483.77953"
     inkscape:cy="483.77953"
     inkscape:window-width="1920"
     inkscape:window-height="1012"
     inkscape:window-x="0"
     inkscape:window-y="447"
     inkscape:window-maximized="1"
     inkscape:current-layer="svg8" />
  <metadata
     id="metadata1">
    <rdf:RDF>
      <cc:Work
         rdf:about="">
        <dc:format>image/svg+xml</dc:format>
        <dc:type
           rdf:resource="http://purl.org/dc/dcmitype/StillImage" />
      </cc:Work>
    </rdf:RDF>
  </metadata>
  <path
     id="face_color"
     d="M 135.79998 32.200211 A 105.44 100.09 0 0 0 86.298091 44.201029 C 88.208882 49.744103 86.120165 55.158628 80.127409 60.047606 C 74.817224 64.379894 69.584261 66.394115 62.861279 66.693712 L 57.477112 66.934008 L 56.941228 65.95939 A 105.44 100.09 0 0 0 56.129391 66.729886 C 57.510064 69.667576 58.733466 72.479837 59.169515 73.892756 C 60.773011 79.087836 60.607752 83.25318 58.64965 86.990664 C 56.523459 91.048748 51.553736 95.755507 47.370752 97.672699 C 44.127939 99.159097 39.762969 99.780208 36.501649 99.330996 A 105.44 100.09 0 0 0 30.359905 132.29022 A 105.44 100.09 0 0 0 135.79998 232.38024 A 105.44 100.09 0 0 0 241.24005 132.29022 A 105.44 100.09 0 0 0 135.79998 32.200211 z M 159.70394 104.26041 L 165.54442 105.86858 L 172.43237 152.59493 L 171.5549 162.23103 L 151.22023 156.63189 L 152.72608 140.10215 L 157.71285 141.47519 L 156.99042 149.40649 L 164.02461 151.34281 L 165.00491 151.61308 C 165.39827 151.77203 165.76561 151.89848 166.10665 151.99238 C 166.50455 152.10194 166.91424 152.24004 167.33604 152.40683 L 167.36343 152.1102 C 167.22891 151.66793 167.09657 151.20095 166.96655 150.70925 C 166.86046 150.27477 166.74924 149.73741 166.63272 149.09747 C 166.5162 148.45757 166.39209 147.7396 166.26065 146.94359 L 159.70394 104.26041 z M 116.01462 158.36822 L 122.5734 158.96301 C 122.82585 162.47083 123.51906 165.69168 124.65337 168.62599 C 125.78768 171.5603 127.2957 174.09311 129.17713 176.22398 C 131.05854 178.35484 133.26242 180.07928 135.78809 181.3973 C 138.26231 182.71066 141.01653 183.50487 144.05167 183.7801 L 158.71279 185.10974 C 161.69647 185.3803 164.52047 185.12808 167.18411 184.3532 C 169.85422 183.50634 172.28067 182.20156 174.46325 180.43922 C 176.65236 178.60485 178.56861 176.34632 180.21225 173.66393 C 181.85589 170.98152 183.11718 167.93788 183.99652 164.5327 L 190.86432 165.1554 C 189.47469 170.18415 187.69695 174.63321 185.53079 178.50239 C 183.37116 182.29962 180.87752 185.4858 178.05063 188.06098 C 175.23033 190.56406 172.13123 192.42475 168.753 193.64307 C 165.33003 194.7847 161.68936 195.18046 157.83119 194.83059 L 143.17007 193.50199 C 139.41471 193.16145 135.98503 192.08815 132.88129 190.28203 C 129.72605 188.47125 126.98977 186.04498 124.67249 183.00341 C 122.30353 179.95714 120.37236 176.36979 118.87956 172.24127 C 117.3933 168.04081 116.43858 163.4164 116.01462 158.36822 z "
     transform="translate(-0.23822998,2.2566)" />
  <path
     id="face_contour"
     style="stroke-width:7.81799985;stroke-dasharray:none"
     d="M 135.1101 27.172094 C 116.51822 27.172094 98.986959 31.568482 83.579911 39.300553 C 84.084491 39.953593 84.551471 40.6369 84.972074 41.35159 C 86.094769 43.25929 86.742642 45.159992 86.928027 47.037548 C 101.26559 39.769941 117.65916 35.638761 135.1101 35.638761 C 191.71898 35.638761 237.31006 79.006944 237.31006 132.33983 C 237.31006 185.67273 191.72398 229.04297 135.1101 229.04297 C 78.501208 229.04297 32.910137 185.67273 32.910137 132.33983 C 32.910138 120.80461 35.050716 109.73907 38.966098 99.47414 C 37.293333 99.494971 35.741329 99.302408 34.523475 98.875727 C 33.219023 98.418628 31.974958 97.868702 30.794504 97.241718 C 26.701 108.21779 24.450188 120.02512 24.450188 132.3419 C 24.450188 190.49978 74.163218 237.51222 135.1101 237.51222 C 196.05698 237.51222 245.77001 190.49978 245.77001 132.3419 C 245.77001 74.184018 196.05698 27.172094 135.1101 27.172094 z M 54.103158 60.759708 C 53.903198 60.96391 53.690613 61.156544 53.492343 61.362255 C 54.774745 63.847553 56.252069 66.919363 57.41045 69.526097 C 58.243967 68.603311 59.116925 67.714194 59.986003 66.82187 L 57.477112 66.934008 L 54.972872 62.380797 C 54.654952 61.802763 54.387442 61.292201 54.103158 60.759708 z "
     transform="translate(-0.23822998,2.2566)" />
  <path
     d="m108.28 26.244q0 9.6097-7.5184 15.983-7.4686 6.3733-18.821 6.3733-12.049 0-19.219-6.2239-7.1201-6.2239-7.1201-15.933 0-6.1741 3.585-11.153 3.585-5.0289 10.108-7.9666v-0.29875q-5.9749-3.1866-8.8628-6.9707-2.8381-3.7841-2.8381-9.4603 0-8.3649 6.8712-13.941t17.477-5.5766q11.103 0 17.726 5.3276 6.6222 5.3276 6.6222 13.543 0 5.0289-3.1368 9.9084-3.1368 4.8297-9.2113 7.5682v0.29875q6.9707 2.9875 10.655 7.3691 3.6845 4.3816 3.6845 11.153zm-11.8-36.198q0-5.3276-4.1327-8.4645-4.0829-3.1866-10.456-3.1866-6.2737 0-10.307 2.9875-3.9833 2.9875-3.9833 8.0661 0 3.585 1.9916 6.2239 2.0414 2.5891 6.1243 4.6306 1.8423 0.89624 5.2778 2.3402 3.4854 1.4439 6.7716 2.39 4.9293-3.2862 6.8214-6.8214 1.8921-3.5352 1.8921-8.1657zm1.5435 37.144q0-4.5808-2.0414-7.3193-1.9916-2.7883-7.867-5.5766-2.3402-1.0954-5.1285-2.0414t-7.4189-2.6389q-4.4812 2.4398-7.2197 6.6222-2.6887 4.1824-2.6887 9.4603 0 6.7218 4.6306 11.103 4.6306 4.3816 11.751 4.3816 7.2695 0 11.601-3.7343 4.3816-3.7343 4.3816-10.257z"
     stroke-width="19.931"
     id="8_contour"
     transform="matrix(0.68629001,0.60933999,-0.72664,0.81194,4.96467,8.1496001)" />
</svg>
