<?xml version="1.0" encoding="UTF-8" standalone="no"?>
<!-- Created with Inkscape (http://www.inkscape.org/) -->

<svg
   width="512"
   height="512"
   viewBox="0 0 512 512"
   version="1.1"
   id="svg1"
   xml:space="preserve"
   inkscape:version="1.3.2 (091e20ef0f, 2023-11-25)"
   sodipodi:docname="thth.svg"
   inkscape:export-filename="thth.jpg"
   inkscape:export-xdpi="96"
   inkscape:export-ydpi="96"
   xmlns:inkscape="http://www.inkscape.org/namespaces/inkscape"
   xmlns:sodipodi="http://sodipodi.sourceforge.net/DTD/sodipodi-0.dtd"
   xmlns="http://www.w3.org/2000/svg"
   xmlns:svg="http://www.w3.org/2000/svg"><sodipodi:namedview
     id="namedview1"
     pagecolor="#ffffff"
     bordercolor="#000000"
     borderopacity="0.25"
     inkscape:showpageshadow="2"
     inkscape:pageopacity="0.0"
     inkscape:pagecheckerboard="true"
     inkscape:deskcolor="#d1d1d1"
     inkscape:document-units="mm"
     inkscape:zoom="0.7486217"
     inkscape:cx="262.48237"
     inkscape:cy="267.15763"
     inkscape:window-width="1920"
     inkscape:window-height="1012"
     inkscape:window-x="0"
     inkscape:window-y="445"
     inkscape:window-maximized="1"
     inkscape:current-layer="layer2" /><defs
     id="defs1" /><g
     inkscape:groupmode="layer"
     id="layer2"
     inkscape:label="face"><path
       style="fill:#93691a;stroke:#000001;stroke-width:32;stroke-linecap:square;paint-order:markers stroke fill;stroke-linejoin:round;fill-opacity:1;stroke-dasharray:none;stroke-opacity:1"
       d="m 466.79327,372.97302 c 0,0 -72.81558,-1.51967 -60.10766,-84.43927 12.70793,-82.9196 25.23033,-128.891 -5.19452,-164.79435 C 371.06624,87.836062 221.91011,53.547421 193.06213,52.312649 c -28.84797,-1.234772 -57.13939,9.403267 -57.13939,9.403267 0,0 40.7211,11.397859 52.59422,24.030531 11.87311,12.632672 28.56969,20.706143 28.56969,20.706143 0,0 -52.50145,-7.503617 -87.84254,3.13442 -35.341092,10.63804 -77.917363,41.60229 -77.917363,41.60229 0,0 49.440423,-10.63803 64.096303,-11.30291 14.65589,-0.66488 53.05802,-0.37993 53.05802,-0.37993 0,0 -45.73007,12.06277 -75.691162,85.86405 -29.961087,73.80128 -9.090355,140.85876 1.20587,161.27999 10.296222,20.42124 54.542172,52.14531 80.143582,54.42489 25.60141,2.27958 73.2794,24.4105 101.47807,21.84598 28.19868,-2.56453 97.30399,-23.17573 97.30399,-23.17573 0,0 -56.30461,-5.79394 -67.89944,-5.50899 -11.59484,0.28495 -32.74381,0.75994 -32.65107,-25.64519 0.0927,-26.40513 3.15378,-34.76359 3.15378,-34.76359 0,0 76.15493,13.67748 114.64983,10.73302 38.49489,-2.94446 76.61875,-11.58787 76.61875,-11.58787 z"
       id="path1" /></g><g
     inkscape:groupmode="layer"
     id="layer3"
     inkscape:label="eye"><path
       style="fill:#5f4991;fill-opacity:1;stroke:#000001;stroke-width:32;stroke-linecap:square;stroke-linejoin:round;stroke-dasharray:none;stroke-opacity:1;paint-order:markers stroke fill"
       d="m 374.12729,228.50494 c 0,0 -17.43871,-14.43738 -56.49013,-20.51622 -39.05142,-6.07884 -64.37457,-5.03404 -74.76355,10.06814 -10.38899,15.10218 -11.22381,58.79412 12.24416,61.83352 23.46797,3.0394 94.79942,16.24193 105.37395,2.37453 10.57452,-13.86741 13.63557,-53.75997 13.63557,-53.75997 z"
       id="path2" /></g></svg>
