<?xml version="1.0" encoding="UTF-8" standalone="no"?>
<svg
   xmlns:dc="http://purl.org/dc/elements/1.1/"
   xmlns:cc="http://creativecommons.org/ns#"
   xmlns:rdf="http://www.w3.org/1999/02/22-rdf-syntax-ns#"
   xmlns:svg="http://www.w3.org/2000/svg"
   xmlns="http://www.w3.org/2000/svg"
   width="256"
   height="256"
   viewBox="0 0 67.733333 67.733335"
   version="1.1"
   id="svg8">
  <defs
     id="defs2" />
  <metadata
     id="metadata5">
    <rdf:RDF>
      <cc:Work
         rdf:about="">
        <dc:format>image/svg+xml</dc:format>
        <dc:type
           rdf:resource="http://purl.org/dc/dcmitype/StillImage" />
        <dc:title></dc:title>
      </cc:Work>
    </rdf:RDF>
  </metadata>
  <g
     id="layer1">
    <path
       style="fill:#c38964;fill-opacity:1;stroke:#000000;stroke-width:0.529167;stroke-linecap:butt;stroke-linejoin:miter;stroke-miterlimit:4;stroke-dasharray:none;stroke-opacity:1"
       d="m 47.195724,22.90675 c 0,0 -1.560872,-1.343075 0.653389,-3.484736 2.214258,-2.141661 5.045606,-3.085443 7.768055,-3.049144 2.722451,0.0363 4.392221,0.907483 4.791512,3.230641 0.399293,2.323157 -1.669767,5.299701 -3.448437,6.933173 -1.778666,1.633468 -5.662694,2.214258 -5.662694,2.214258"
       id="path849" />
    <path
       style="fill:#af8064;fill-opacity:1;stroke:none;stroke-width:0.389202;stroke-linecap:butt;stroke-linejoin:miter;stroke-miterlimit:4;stroke-dasharray:none;stroke-opacity:1"
       d="m 47.740023,23.760421 c 0,0 -1.148301,-0.988072 0.480685,-2.563648 1.628984,-1.575576 3.711948,-2.269896 5.714797,-2.243192 2.002851,0.0267 3.231266,0.667616 3.525016,2.376716 0.293751,1.709098 -1.228413,3.89888 -2.536944,5.100591 -1.308527,1.201709 -4.165926,1.628984 -4.165926,1.628984"
       id="path849-6" />
    <path
       style="fill:#c38964;fill-opacity:1;stroke:#000000;stroke-width:0.529167;stroke-linecap:butt;stroke-linejoin:miter;stroke-miterlimit:4;stroke-dasharray:none;stroke-opacity:1"
       d="m 22.838871,22.90675 c 0,0 -0.145198,-1.706069 -1.814967,-3.303239 -1.669769,-1.597171 -4.35592,-3.230641 -6.352383,-2.831348 -1.996464,0.399292 -3.81143,2.214259 -4.8278117,5.880492 -1.0163813,3.666232 -0.2903945,5.698996 1.3793747,8.239949 1.669769,2.540952 4.138124,2.504654 4.138124,2.504654"
       id="path851" />
    <path
       style="fill:#af8064;fill-opacity:1;stroke:none;stroke-width:0.381707;stroke-linecap:butt;stroke-linejoin:miter;stroke-miterlimit:4;stroke-dasharray:none;stroke-opacity:1"
       d="m 21.689379,24.209393 c 0,0 -0.104737,-1.230649 -1.309201,-2.382744 -1.204464,-1.152097 -3.14208,-2.330377 -4.5822,-2.042352 -1.440121,0.288023 -2.74932,1.597223 -3.482472,4.241808 -0.733152,2.644584 -0.209473,4.110888 0.994991,5.943769 1.204465,1.832879 2.984976,1.806696 2.984976,1.806696"
       id="path851-0" />
    <path
       style="fill:#af8064;fill-opacity:1;stroke:#000000;stroke-width:0.529167;stroke-linecap:butt;stroke-linejoin:miter;stroke-miterlimit:4;stroke-dasharray:none;stroke-opacity:1"
       d="m 17.586153,27.176814 c 6.142659,-6.018566 6.080612,-4.529436 12.037129,-5.70833 5.956517,-1.178895 11.726894,-1.0548 16.566565,1.054799 4.839671,2.109599 6.701081,8.252258 5.336045,15.449719 -1.365033,7.197457 -1.923457,13.712399 -9.989574,18.55207 -8.066119,4.839668 -16.814753,2.357786 -20.909859,-0.496377 -4.095105,-2.854166 -6.266753,-8.500449 -5.832423,-16.44247 0.434329,-7.942025 1.116847,-10.610049 2.792117,-12.409411 z"
       id="path847" />
    <path
       style="fill:#ffcd5a;fill-opacity:1;stroke:#000000;stroke-width:0.529167;stroke-linecap:butt;stroke-linejoin:miter;stroke-miterlimit:4;stroke-dasharray:none;stroke-opacity:1"
       d="m 29.812002,13.578409 c 0,0 1.036489,0.230472 1.940097,-0.25352 0.903607,-0.483992 1.461717,-1.774638 5.182452,-2.350819 3.720732,-0.576181 4.039654,0.25352 4.039654,0.25352 0,0 2.046402,2.627385 -2.551362,7.236834 -4.597763,4.609449 -9.567601,1.382835 -10.524361,-0.829701 -0.95676,-2.212535 -0.451803,-3.295755 1.91352,-4.056314 z"
       id="path853" />
    <circle
       style="fill:#000000;fill-opacity:1;stroke:none;stroke-width:0.529167;stroke-miterlimit:4;stroke-dasharray:none;stroke-opacity:1"
       id="path861"
       cx="25.162027"
       cy="32.489773"
       r="2.6861508" />
    <circle
       style="fill:#000000;fill-opacity:1;stroke:none;stroke-width:0.529167;stroke-miterlimit:4;stroke-dasharray:none;stroke-opacity:1"
       id="path861-2"
       cx="40.734444"
       cy="30.130318"
       r="2.6861508" />
    <path
       style="fill:#4b2822;fill-opacity:1;stroke:#000000;stroke-width:0.529167;stroke-linecap:butt;stroke-linejoin:miter;stroke-miterlimit:4;stroke-dasharray:none;stroke-opacity:1"
       d="m 33.692373,37.753178 c 0,0 -1.125281,-0.181496 -2.141662,1.343075 -1.016381,1.524572 -0.725988,4.138123 -0.725988,4.138123 0,0 1.379376,0.725988 2.649852,0.471893 1.270477,-0.254096 2.540953,-0.834885 2.540953,-0.834885 0,0 0.399293,-1.488273 -0.326694,-3.085444 -0.725985,-1.59717 -1.996461,-2.032762 -1.996461,-2.032762 z"
       id="path885" />
    <path
       style="fill:none;stroke:#000000;stroke-width:0.529167;stroke-linecap:butt;stroke-linejoin:miter;stroke-miterlimit:4;stroke-dasharray:none;stroke-opacity:1"
       d="m 33.184182,43.669968 -0.580789,7.332466"
       id="path887" />
    <path
       style="fill:none;stroke:#000000;stroke-width:0.529167;stroke-linecap:butt;stroke-linejoin:miter;stroke-miterlimit:4;stroke-dasharray:none;stroke-opacity:1"
       d="m 25.670219,46.936908 c 0,0 6.170885,8.82074 15.71761,0.61709"
       id="path889" />
    <circle
       style="fill:#cf5b26;fill-opacity:1;stroke:none;stroke-width:0.529167;stroke-miterlimit:4;stroke-dasharray:none;stroke-opacity:1"
       id="path861-2-8"
       cx="44.465832"
       cy="39.7206"
       r="2.6861508" />
    <circle
       style="fill:#cf5b26;fill-opacity:1;stroke:none;stroke-width:0.529167;stroke-miterlimit:4;stroke-dasharray:none;stroke-opacity:1"
       id="path861-2-8-2"
       cx="22.503077"
       cy="41.686558"
       r="2.6861508" />
    <path
       style="fill:#81c33d;fill-opacity:1;stroke:#000000;stroke-width:0.529167;stroke-linecap:butt;stroke-linejoin:miter;stroke-miterlimit:4;stroke-dasharray:none;stroke-opacity:1"
       d="m 29.518988,12.585602 c 0,0 -1.562325,-0.372264 -2.617095,3.818913 -1.05477,4.191176 -0.986491,6.063156 -0.986491,6.063156 0,0 8.420556,-8.972287 3.603586,-9.882069 z"
       id="path931" />
  </g>
</svg>
